<svg xmlns="http://www.w3.org/2000/svg" viewBox="0 0 720 360" fill="none"><g stroke="#000" stroke-linecap="round" stroke-linejoin="round"><circle cx="160" cy="240" r="92" stroke-width="3.2"/><circle cx="560" cy="240" r="92" stroke-width="3.2"/><circle cx="160" cy="240" r="5" stroke-width="2.2"/><circle cx="560" cy="240" r="5" stroke-width="2.2"/><g stroke-width="4"><path d="M160 240L342 240L292 112L160 240Z"/><path d="M292 112L458 126L342 240L292 112Z"/><path d="M458 126L478 164L342 240"/><path d="M478 164L560 240"/><path d="M292 112L278 82"/><path d="M458 126L476 92L514 86"/></g><path d="M254 77C272 73 292 73 311 78" stroke-width="3.2"/><path d="M514 86C532 85 543 94 543 107C543 118 536 127 525 129C514 131 508 138 510 149" stroke-width="3.2"/><circle cx="342" cy="240" r="15" stroke-width="2.8"/><path d="M342 240L368 255M368 255H389" stroke-width="2.8"/><path d="M342 224L329 207" stroke-width="2.4"/><path d="M278 82L270 64" stroke-width="2.6"/><path d="M248 62H287" stroke-width="2.8"/><path d="M476 92L486 72" stroke-width="2.6"/><path d="M505 68H523" stroke-width="2.8"/></g></svg>